<?xml version="1.0"?>
<svg xmlns="http://www.w3.org/2000/svg" xmlns:xlink="http://www.w3.org/1999/xlink" xmlns:svgjs="http://svgjs.com/svgjs" version="1.1" width="512" height="512" x="0" y="0" viewBox="0 0 64 64" style="enable-background:new 0 0 512 512" xml:space="preserve" class=""><g><g xmlns="http://www.w3.org/2000/svg" id="Icons"><g><g><path d="m32 58c-14.359 0-26-11.641-26-26 0-14.359 11.641-26 26-26 14.359 0 26 11.641 26 26 0 14.359-11.641 26-26 26z" fill="#6214d3" data-original="#3cc8b4" style="" class=""/></g><g><path d="m10 32c0-13.686 10.576-24.894 24-25.916-.661-.05-1.326-.084-2-.084-14.359 0-26 11.641-26 26 0 14.359 11.641 26 26 26 .674 0 1.339-.034 2-.084-13.424-1.022-24-12.23-24-25.916z" fill="#442176" data-original="#1eaa96" style="" class=""/></g><g><path d="m30 28v-8l-16 12 16 12v-8h20v-8z" fill="#f0f0f0" data-original="#f0f0f0" style="" class=""/></g></g></g></g></svg>
